# xmcd CD database file
#
# Track frame offsets:
#	150
#	21750
#	37875
#
# Disc length: 699 seconds
#
# Revision: 2
# Processed by: cddbd v1.5PL3 Copyright (c) Steve Scherf et al.
# Submitted via: CDex 1.50beta9
#
DISCID=1702b903
DTITLE=Bonnie Pink - Thinking Of You
DYEAR=2001
DGENRE=JPop
TTITLE0=Thinking Of You
TTITLE1=Bubble Gum
TTITLE2=That's what it's all about
EXTD=YEAR: 2001
EXTT0=
EXTT1=
EXTT2=
PLAYORDER=
